<svg width="83" height="24" viewBox="0 0 83 24" fill="none"
  xmlns="http://www.w3.org/2000/svg">
<g clip-path="url(#clip0_6113_334)">
  <path d="M11.0345 13.9457C12.1208 13.9457 13.0015 13.0746 13.0015 12C13.0015 10.9255 12.1208 10.0544 11.0345 10.0544C9.94814 10.0544 9.06747 10.9255 9.06747 12C9.06747 13.0746 9.94814 13.9457 11.0345 13.9457Z" fill="#334155"/>
  <path d="M11.0345 15.9862C16.8637 15.9862 21.5892 14.2015 21.5892 12C21.5892 9.79848 16.8637 8.01379 11.0345 8.01379C5.20528 8.01379 0.479767 9.79848 0.479767 12C0.479767 14.2015 5.20528 15.9862 11.0345 15.9862Z" stroke="#334155" stroke-width="0.95952"/>
  <path d="M7.54445 13.9931C10.4591 18.9865 14.3844 22.1421 16.3119 21.0414C18.2394 19.9406 17.4392 15.0003 14.5246 10.0069C11.61 5.01348 7.68467 1.85786 5.75715 2.95862C3.82964 4.05938 4.62984 8.99969 7.54445 13.9931Z" stroke="#334155" stroke-width="0.95952"/>
  <path d="M7.54444 10.0069C4.62984 15.0003 3.82964 19.9406 5.75715 21.0414C7.68466 22.1421 11.61 18.9865 14.5246 13.9931C17.4392 8.99968 18.2394 4.05938 16.3119 2.95861C14.3844 1.85785 10.459 5.01347 7.54444 10.0069Z" stroke="#334155" stroke-width="0.95952"/>

  </g>
<path d="M39.6865 4.55486V19H37.9937L30.1223 7.65831H29.9812V19H28.232V4.55486H29.9248L37.8245 15.9248H37.9655V4.55486H39.6865ZM47.3623 19.2257C46.3842 19.2257 45.5261 18.9929 44.7878 18.5274C44.0543 18.0619 43.4806 17.4107 43.0668 16.5737C42.6577 15.7367 42.4532 14.7586 42.4532 13.6395C42.4532 12.511 42.6577 11.5259 43.0668 10.6842C43.4806 9.84248 44.0543 9.18887 44.7878 8.72335C45.5261 8.25784 46.3842 8.02508 47.3623 8.02508C48.3403 8.02508 49.1961 8.25784 49.9297 8.72335C50.6679 9.18887 51.2416 9.84248 51.6507 10.6842C52.0645 11.5259 52.2714 12.511 52.2714 13.6395C52.2714 14.7586 52.0645 15.7367 51.6507 16.5737C51.2416 17.4107 50.6679 18.0619 49.9297 18.5274C49.1961 18.9929 48.3403 19.2257 47.3623 19.2257ZM47.3623 17.7304C48.1052 17.7304 48.7165 17.54 49.1961 17.1591C49.6757 16.7782 50.0308 16.2774 50.2612 15.6567C50.4916 15.0361 50.6068 14.3636 50.6068 13.6395C50.6068 12.9154 50.4916 12.2406 50.2612 11.6152C50.0308 10.9898 49.6757 10.4843 49.1961 10.0987C48.7165 9.71317 48.1052 9.52038 47.3623 9.52038C46.6193 9.52038 46.008 9.71317 45.5284 10.0987C45.0488 10.4843 44.6938 10.9898 44.4634 11.6152C44.233 12.2406 44.1177 12.9154 44.1177 13.6395C44.1177 14.3636 44.233 15.0361 44.4634 15.6567C44.6938 16.2774 45.0488 16.7782 45.5284 17.1591C46.008 17.54 46.6193 17.7304 47.3623 17.7304ZM59.5239 8.16614V9.5768H53.9095V8.16614H59.5239ZM55.5458 5.57053H57.2104V15.8966C57.2104 16.3668 57.2786 16.7194 57.415 16.9545C57.556 17.185 57.7347 17.3401 57.951 17.4201C58.172 17.4953 58.4048 17.5329 58.6493 17.5329C58.8327 17.5329 58.9831 17.5235 59.1007 17.5047C59.2183 17.4812 59.3123 17.4624 59.3828 17.4483L59.7214 18.9436C59.6085 18.9859 59.451 19.0282 59.2488 19.0705C59.0466 19.1176 58.7904 19.1411 58.48 19.1411C58.0098 19.1411 57.549 19.04 57.0976 18.8378C56.6509 18.6356 56.2794 18.3276 55.9831 17.9138C55.6916 17.5 55.5458 16.9781 55.5458 16.348V5.57053ZM66.4538 19.2257C65.4099 19.2257 64.5094 18.9953 63.7523 18.5345C63 18.069 62.4193 17.4201 62.0102 16.5878C61.6058 15.7508 61.4036 14.7774 61.4036 13.6677C61.4036 12.558 61.6058 11.5799 62.0102 10.7335C62.4193 9.88245 62.9882 9.21944 63.7171 8.74451C64.4506 8.26489 65.3064 8.02508 66.2845 8.02508C66.8487 8.02508 67.406 8.11912 67.9561 8.30721C68.5063 8.4953 69.0071 8.80094 69.4585 9.22414C69.9099 9.64263 70.2696 10.1975 70.5376 10.8887C70.8056 11.5799 70.9397 12.431 70.9397 13.442V14.1473H62.5886V12.7085H69.2469C69.2469 12.0972 69.1246 11.5517 68.8801 11.0721C68.6403 10.5925 68.297 10.2139 67.8503 9.93652C67.4083 9.65909 66.8864 9.52038 66.2845 9.52038C65.6215 9.52038 65.0478 9.68495 64.5635 10.0141C64.0839 10.3386 63.7147 10.7618 63.4561 11.2837C63.1975 11.8056 63.0682 12.3652 63.0682 12.9624V13.9216C63.0682 14.7398 63.2092 15.4334 63.4914 16.0024C63.7782 16.5666 64.1755 16.9969 64.6834 17.2931C65.1912 17.5846 65.7813 17.7304 66.4538 17.7304C66.8911 17.7304 67.286 17.6693 67.6387 17.547C67.9961 17.4201 68.3041 17.232 68.5627 16.9828C68.8213 16.7288 69.0212 16.4138 69.1622 16.0376L70.7704 16.489C70.6011 17.0345 70.3166 17.5141 69.9169 17.9279C69.5172 18.337 69.0235 18.6567 68.4357 18.8871C67.848 19.1129 67.1873 19.2257 66.4538 19.2257ZM81.1458 10.5925L79.6505 11.0157C79.5564 10.7665 79.4177 10.5243 79.2343 10.2892C79.0556 10.0494 78.8111 9.85188 78.5008 9.69671C78.1904 9.54154 77.7931 9.46395 77.3088 9.46395C76.6458 9.46395 76.0933 9.61677 75.6513 9.92241C75.2139 10.2234 74.9953 10.6066 74.9953 11.0721C74.9953 11.4859 75.1458 11.8127 75.4467 12.0525C75.7476 12.2923 76.2179 12.4922 76.8574 12.652L78.4655 13.047C79.4342 13.2821 80.156 13.6418 80.6309 14.1262C81.1058 14.6058 81.3433 15.2241 81.3433 15.9812C81.3433 16.6019 81.1646 17.1567 80.8072 17.6458C80.4545 18.1348 79.9608 18.5204 79.326 18.8025C78.6912 19.0846 77.953 19.2257 77.1113 19.2257C76.0063 19.2257 75.0917 18.9859 74.3676 18.5063C73.6434 18.0266 73.1849 17.326 72.9922 16.4044L74.5721 16.0094C74.7226 16.5925 75.0071 17.0298 75.4255 17.3213C75.8487 17.6129 76.4013 17.7586 77.0831 17.7586C77.8589 17.7586 78.4749 17.594 78.931 17.2649C79.3918 16.931 79.6223 16.5313 79.6223 16.0658C79.6223 15.6897 79.4906 15.3746 79.2273 15.1207C78.9639 14.8621 78.5596 14.6693 78.0141 14.5423L76.2085 14.1191C75.2163 13.884 74.4875 13.5196 74.0219 13.0259C73.5611 12.5274 73.3307 11.9044 73.3307 11.1567C73.3307 10.5455 73.5023 10.0047 73.8456 9.53448C74.1936 9.06426 74.6661 8.69514 75.2633 8.42712C75.8652 8.15909 76.547 8.02508 77.3088 8.02508C78.3809 8.02508 79.2226 8.26019 79.8339 8.73041C80.4498 9.20063 80.8871 9.82132 81.1458 10.5925Z" fill="#334155"/>

  <defs>
<clipPath id="clip0_6113_334">
  <rect width="22.069" height="22.069" fill="white" transform="translate(0 0.965515)"/>

    </clipPath>
  </defs>
</svg>
